<svg width="24" height="24" viewBox="0 0 24 24" fill="none" xmlns="http://www.w3.org/2000/svg">
<path d="M12 25C12.7956 25 13.5587 24.6839 14.1213 24.1213C14.6839 23.5587 15 22.7956 15 22H9C9 22.7956 9.31607 23.5587 9.87868 24.1213C10.4413 24.6839 11.2044 25 12 25ZM13.4925 2.64847C13.5134 2.4399 13.4904 2.22926 13.4249 2.03013C13.3595 1.831 13.253 1.6478 13.1124 1.49236C12.9717 1.33691 12.8001 1.21266 12.6085 1.12763C12.4169 1.04259 12.2096 0.998657 12 0.998657C11.7904 0.998657 11.5831 1.04259 11.3915 1.12763C11.1999 1.21266 11.0283 1.33691 10.8876 1.49236C10.747 1.6478 10.6405 1.831 10.5751 2.03013C10.5096 2.22926 10.4866 2.4399 10.5075 2.64847C8.81208 2.99332 7.28793 3.91351 6.19315 5.25322C5.09836 6.59293 4.50022 8.26983 4.5 9.99997C4.5 11.647 3.75 19 1.5 20.5H22.5C20.25 19 19.5 11.647 19.5 9.99997C19.5 6.36997 16.92 3.33997 13.4925 2.64847Z"/>
</svg>
