<svg width="24" height="24" viewBox="0 0 24 24" fill="none" xmlns="http://www.w3.org/2000/svg">
<path d="M24 11.2515C24 17.4656 18.627 22.5031 12 22.5031C10.8115 22.5048 9.62788 22.3394 8.4795 22.0112C7.6035 22.487 5.592 23.4 2.208 23.9947C1.908 24.0462 1.68 23.7118 1.7985 23.4129C2.3295 22.0691 2.8095 20.2785 2.9535 18.6454C1.116 16.6684 0 14.0805 0 11.2515C0 5.03748 5.373 0 12 0C18.627 0 24 5.03748 24 11.2515ZM6.75 6.42945C6.55109 6.42945 6.36032 6.51413 6.21967 6.66485C6.07902 6.81557 6 7.01999 6 7.23314C6 7.44629 6.07902 7.65071 6.21967 7.80143C6.36032 7.95214 6.55109 8.03682 6.75 8.03682H17.25C17.4489 8.03682 17.6397 7.95214 17.7803 7.80143C17.921 7.65071 18 7.44629 18 7.23314C18 7.01999 17.921 6.81557 17.7803 6.66485C17.6397 6.51413 17.4489 6.42945 17.25 6.42945H6.75ZM6.75 10.4479C6.55109 10.4479 6.36032 10.5325 6.21967 10.6833C6.07902 10.834 6 11.0384 6 11.2515C6 11.4647 6.07902 11.6691 6.21967 11.8198C6.36032 11.9706 6.55109 12.0552 6.75 12.0552H17.25C17.4489 12.0552 17.6397 11.9706 17.7803 11.8198C17.921 11.6691 18 11.4647 18 11.2515C18 11.0384 17.921 10.834 17.7803 10.6833C17.6397 10.5325 17.4489 10.4479 17.25 10.4479H6.75ZM6.75 14.4663C6.55109 14.4663 6.36032 14.5509 6.21967 14.7017C6.07902 14.8524 6 15.0568 6 15.27C6 15.4831 6.07902 15.6875 6.21967 15.8382C6.36032 15.989 6.55109 16.0736 6.75 16.0736H12.75C12.9489 16.0736 13.1397 15.989 13.2803 15.8382C13.421 15.6875 13.5 15.4831 13.5 15.27C13.5 15.0568 13.421 14.8524 13.2803 14.7017C13.1397 14.5509 12.9489 14.4663 12.75 14.4663H6.75Z" fill="#E78565"/>
</svg>
