<svg width="24" height="24" viewBox="0 0 24 24" fill="none" xmlns="http://www.w3.org/2000/svg">
<path fill-rule="evenodd" clip-rule="evenodd" d="M12.531 17.031C12.4614 17.1008 12.3786 17.1563 12.2875 17.1941C12.1964 17.2319 12.0987 17.2513 12 17.2513C11.9014 17.2513 11.8037 17.2319 11.7126 17.1941C11.6215 17.1563 11.5387 17.1008 11.469 17.031L2.46903 8.031C2.3282 7.89017 2.24908 7.69917 2.24908 7.5C2.24908 7.30084 2.3282 7.10983 2.46903 6.969C2.60986 6.82817 2.80087 6.74906 3.00003 6.74906C3.19919 6.74906 3.3902 6.82817 3.53103 6.969L12 15.4395L20.469 6.969C20.6099 6.82817 20.8009 6.74906 21 6.74906C21.1992 6.74906 21.3902 6.82817 21.531 6.969C21.6719 7.10983 21.751 7.30084 21.751 7.5C21.751 7.69917 21.6719 7.89017 21.531 8.031L12.531 17.031Z" />
</svg>
