<svg width="24" height="24" viewBox="0 0 24 24" fill="none" xmlns="http://www.w3.org/2000/svg">
<path d="M20 0H4C2.93913 0 1.92172 0.316071 1.17157 0.87868C0.421427 1.44129 0 2.20435 0 3V21C0 21.7956 0.421427 22.5587 1.17157 23.1213C1.92172 23.6839 2.93913 24 4 24H20C21.0609 24 22.0783 23.6839 22.8284 23.1213C23.5786 22.5587 24 21.7956 24 21V3C24 2.20435 23.5786 1.44129 22.8284 0.87868C22.0783 0.316071 21.0609 0 20 0ZM8 11.25H16C16.2652 11.25 16.5196 11.329 16.7071 11.4697C16.8946 11.6103 17 11.8011 17 12C17 12.1989 16.8946 12.3897 16.7071 12.5303C16.5196 12.671 16.2652 12.75 16 12.75H8C7.73478 12.75 7.48043 12.671 7.29289 12.5303C7.10536 12.3897 7 12.1989 7 12C7 11.8011 7.10536 11.6103 7.29289 11.4697C7.48043 11.329 7.73478 11.25 8 11.25Z"/>
</svg>
