<svg width="24" height="24" viewBox="0 0 24 24" fill="none" xmlns="http://www.w3.org/2000/svg">
<rect width="24" height="24" rx="12" fill="white"/>
<g clip-path="url(#clip0_175_2041)">
<path d="M18.4615 5.53845H5.53845V18.4615H18.4615V5.53845Z" fill="white"/>
<path fill-rule="evenodd" clip-rule="evenodd" d="M17.9446 12.1408C17.9446 11.7017 17.9052 11.2795 17.832 10.8741H12V13.2694H15.3326C15.189 14.0435 14.7528 14.6993 14.0969 15.1384V16.6921H16.0982C17.2691 15.6141 17.9446 14.0266 17.9446 12.1408Z" fill="#4285F4"/>
<path fill-rule="evenodd" clip-rule="evenodd" d="M12 18.1922C13.6719 18.1922 15.0736 17.6377 16.0982 16.692L14.0969 15.1383C13.5424 15.5098 12.8331 15.7293 12 15.7293C10.3872 15.7293 9.02205 14.64 8.5351 13.1764H6.46631V14.7808C7.48523 16.8045 9.57935 18.1922 12 18.1922Z" fill="#34A853"/>
<path fill-rule="evenodd" clip-rule="evenodd" d="M8.53511 13.1766C8.41126 12.805 8.3409 12.4081 8.3409 12C8.3409 11.5919 8.41126 11.195 8.53511 10.8235V9.21912H6.46631C6.04693 10.0551 5.80768 11.0008 5.80768 12C5.80768 12.9992 6.04693 13.945 6.46631 14.7809L8.53511 13.1766Z" fill="#FBBC05"/>
<path fill-rule="evenodd" clip-rule="evenodd" d="M12 8.27059C12.9091 8.27059 13.7254 8.58302 14.3671 9.19662L16.1432 7.42056C15.0708 6.42134 13.6691 5.80774 12 5.80774C9.57935 5.80774 7.48523 7.19538 6.46631 9.21914L8.5351 10.8235C9.02205 9.35987 10.3872 8.27059 12 8.27059Z" fill="#EA4335"/>
</g>
<defs>
<clipPath id="clip0_175_2041">
<rect x="5.53845" y="5.53845" width="12.9231" height="12.9231" rx="6.46154" fill="white"/>
</clipPath>
</defs>
</svg>
