<svg width="24" height="24" viewBox="0 0 24 24" fill="none" xmlns="http://www.w3.org/2000/svg">
<path d="M13.5591 16.32C13.5591 16.784 13.3911 17.184 13.0551 17.52C12.7351 17.84 12.3431 18 11.8791 18H5.15906C4.69506 18 4.29506 17.84 3.95906 17.52C3.63906 17.184 3.47906 16.784 3.47906 16.32V7.92C3.47906 7.456 3.63906 7.064 3.95906 6.744C4.29506 6.408 4.69506 6.24 5.15906 6.24H11.8791C12.3431 6.24 12.7351 6.408 13.0551 6.744C13.3911 7.064 13.5591 7.456 13.5591 7.92V16.32ZM11.6391 16.32V7.92H5.39906V16.32H11.6391ZM22.3153 18H20.0593L16.7233 13.2H16.4833L13.3393 18H11.0353L15.3793 11.88L11.2753 6.24H13.5793L16.6513 10.776H16.8913L19.8193 6.24H22.0753L18.0193 11.88L22.3153 18Z" />
</svg>
