<svg width="24" height="24" viewBox="0 0 24 24" fill="none" xmlns="http://www.w3.org/2000/svg">
<path fill-rule="evenodd" clip-rule="evenodd" d="M17.0311 2.469C17.101 2.53867 17.1564 2.62143 17.1942 2.71255C17.232 2.80367 17.2515 2.90135 17.2515 3C17.2515 3.09865 17.232 3.19633 17.1942 3.28745C17.1564 3.37857 17.101 3.46133 17.0311 3.531L8.56062 12L17.0311 20.469C17.1719 20.6098 17.2511 20.8008 17.2511 21C17.2511 21.1992 17.1719 21.3902 17.0311 21.531C16.8903 21.6718 16.6993 21.7509 16.5001 21.7509C16.301 21.7509 16.1099 21.6718 15.9691 21.531L6.96912 12.531C6.89927 12.4613 6.84386 12.3786 6.80605 12.2874C6.76824 12.1963 6.74878 12.0986 6.74878 12C6.74878 11.9013 6.76824 11.8037 6.80605 11.7125C6.84386 11.6214 6.89927 11.5387 6.96912 11.469L15.9691 2.469C16.0388 2.39915 16.1216 2.34374 16.2127 2.30593C16.3038 2.26812 16.4015 2.24866 16.5001 2.24866C16.5988 2.24866 16.6965 2.26812 16.7876 2.30593C16.8787 2.34374 16.9615 2.39915 17.0311 2.469Z" />
</svg>
