<svg width="24" height="24" viewBox="0 0 24 24" fill="none" xmlns="http://www.w3.org/2000/svg">
<path d="M22.6271 0.000549786C22.3821 0.010339 22.1496 0.147645 21.9788 0.383378L7.55761 19.7224L5.40787 15.1833L1.9665 11.3874C1.47487 10.913 1.59004 10.9797 1.47487 10.913C1.35971 10.8462 1.10871 10.9147 0.983249 10.913C0.857792 10.9113 0.702776 11.4059 0.586621 11.4695C0.470465 11.5331 0.36494 11.6271 0.276224 11.7461C0.187508 11.8651 0.117386 12.0066 0.0699638 12.1624C0.0225413 12.3181 -0.0012276 12.485 4.88111e-05 12.6533C0.00132522 12.8215 0.0276213 12.9877 0.0773972 13.1421C0.127173 13.2966 0.199428 13.4362 0.28993 13.5527L5.89949 23.2494C6.07635 23.4864 8.4868 24.3816 8.75964 23.8155C9.0097 23.8155 9.74289 23.341 9.98312 22.7749L18.1005 11.7645L24 2.46401C23.5084 -0.857325 23.5416 1.76525 23.5792 1.51547C23.6169 1.26569 23.5975 1.00648 23.5234 0.77179C23.4493 0.537105 23.3241 0.337897 23.1642 0.200276C23.0042 0.0626541 22.817 -0.0069622 22.6271 0.000549786Z" />
</svg>
