<svg width="24" height="24" viewBox="0 0 24 24" fill="none" xmlns="http://www.w3.org/2000/svg">
<path d="M10.08 1.43994C5.56873 1.43994 1.91998 5.08869 1.91998 9.59994C1.91998 14.1112 5.56873 17.7599 10.08 17.7599C11.6906 17.7599 13.1812 17.2874 14.445 16.4849L20.34 22.3799L22.38 20.3399L16.56 14.5349C17.6062 13.1624 18.24 11.4618 18.24 9.59994C18.24 5.08869 14.5912 1.43994 10.08 1.43994ZM10.08 3.35994C13.5356 3.35994 16.32 6.14432 16.32 9.59994C16.32 13.0556 13.5356 15.8399 10.08 15.8399C6.62436 15.8399 3.83998 13.0556 3.83998 9.59994C3.83998 6.14432 6.62436 3.35994 10.08 3.35994Z" />
</svg>
